<svg xmlns="http://www.w3.org/2000/svg" data-name="Layer 9" viewBox="0 0 24 30" x="0px" y="0px">
<path fill="#FFFFFF" d="M22,1.75h-.5a1.7446,1.7446,0,0,0-1.5271.9128,3.9254,3.9254,0,0,1-2.0164-1.06A2.9,2.9,0,0,0,15.89.75a2.87,2.87,0,0,0-1.75.59L12.2565,2.75H7A2.2525,2.2525,0,0,0,4.75,5V8A2.2525,2.2525,0,0,0,7,10.25h8A2.2525,2.2525,0,0,0,17.25,8V7.16a5.3953,5.3953,0,0,0,.7383.0839.2394.2394,0,0,0,.2612-.2378.25.25,0,0,0-.2378-.2612,4.85,4.85,0,0,1-.9453-.1362l-.0132-.0029a4.8182,4.8182,0,0,1-1.0483-.378A4.3785,4.3785,0,0,0,14,5.75a.75.75,0,0,1,0-1.5h2.73a.25.25,0,0,0,.2158-.376A2.235,2.235,0,0,0,15,2.75H13.0909l1.3505-1.0112a2.4605,2.4605,0,0,1,3.1616.2177,4.4192,4.4192,0,0,0,2.1876,1.1753A1.7461,1.7461,0,0,0,19.75,3.5v2a1.7308,1.7308,0,0,0,.2573.9l-.3667.1222a4.3853,4.3853,0,0,1-.6811.1689A.25.25,0,0,0,19,7.188a.2355.2355,0,0,0,.041-.0034,4.9133,4.9133,0,0,0,.7588-.1875l.5551-.185A1.7349,1.7349,0,0,0,21.5,7.25H22A1.2511,1.2511,0,0,0,23.25,6V3A1.2511,1.2511,0,0,0,22,1.75Zm-7,1.5a1.7292,1.7292,0,0,1,1.2231.5H14a1.25,1.25,0,0,0,0,2.5,3.8772,3.8772,0,0,1,1.7783.4238,5.3291,5.3291,0,0,0,.9717.37V8A1.7522,1.7522,0,0,1,15,9.75H7A1.7522,1.7522,0,0,1,5.25,8V5A1.7522,1.7522,0,0,1,7,3.25ZM22.75,6a.7508.7508,0,0,1-.75.75h-.5A1.2511,1.2511,0,0,1,20.25,5.5v-2A1.2511,1.2511,0,0,1,21.5,2.25H22a.7508.7508,0,0,1,.75.75Z"/>
<path fill="#FFFFFF" d="M6.75,4A.7508.7508,0,0,1,6,4.75a.25.25,0,0,0,0,.5A1.2511,1.2511,0,0,0,7.25,4a.25.25,0,0,0-.5,0Z"/>
<path fill="#FFFFFF" d="M6,7.75a.25.25,0,0,0,0,.5A.7508.7508,0,0,1,6.75,9a.25.25,0,0,0,.5,0A1.2511,1.2511,0,0,0,6,7.75Z"/>
<path fill="#FFFFFF" d="M15,9.25A.25.25,0,0,0,15.25,9,.7508.7508,0,0,1,16,8.25a.25.25,0,0,0,0-.5A1.2511,1.2511,0,0,0,14.75,9,.25.25,0,0,0,15,9.25Z"/>
<path fill="#FFFFFF" d="M11,8.25A1.75,1.75,0,1,0,9.25,6.5,1.7522,1.7522,0,0,0,11,8.25Zm0-3A1.25,1.25,0,1,1,9.75,6.5,1.2511,1.2511,0,0,1,11,5.25Z"/>
<path fill="#FFFFFF" d="M13.5762,12.2388a13.3408,13.3408,0,0,0-7.1851.0112A2.2427,2.2427,0,0,0,4.75,14.42v2.104a5.177,5.177,0,0,0-.7856.0235A1.7478,1.7478,0,0,0,2.5,15.75H2A1.2511,1.2511,0,0,0,.75,17a.25.25,0,0,0,.5,0A.7508.7508,0,0,1,2,16.25h.5A1.2511,1.2511,0,0,1,3.75,17.5v2A1.2511,1.2511,0,0,1,2.5,20.75H2A.7508.7508,0,0,1,1.25,20V18a.25.25,0,0,0-.5,0v2A1.2511,1.2511,0,0,0,2,21.25h.5a1.7357,1.7357,0,0,0,1.1564-.4468L5.9116,22.501a3.7739,3.7739,0,0,0,3.9405.3525l2.7167-1.3584a1.2068,1.2068,0,0,0,.5544-1.6252c.162-.0394.3253-.0743.4857-.12a2.2538,2.2538,0,0,0,1.5918-1.6982.25.25,0,0,0-.1929-.2964.2538.2538,0,0,0-.2964.1928,1.7553,1.7553,0,0,1-1.24,1.3213A12.7011,12.7011,0,0,1,10,19.75c-.2507,0-.5923-.0109-.983-.0427a1.2647,1.2647,0,0,0-.15-.5735,5.1148,5.1148,0,0,0-2.7876-2.3711,4.8836,4.8836,0,0,0-.8291-.1895V14.42a1.7474,1.7474,0,0,1,1.2783-1.6894A12.4383,12.4383,0,0,1,7.75,12.4568v.8352A1.3037,1.3037,0,0,0,9.64,14.46a.8132.8132,0,0,1,.7208,0,1.3056,1.3056,0,0,0,1.89-1.1675v-.8333c.3992.0706.7971.1531,1.1909.2615a1.792,1.792,0,0,1,1.3091,1.7V17a.25.25,0,0,0,.5,0V14.42A2.2946,2.2946,0,0,0,13.5762,12.2388Zm-5.1441,7.143a.8091.8091,0,0,1-.1377.97.82.82,0,0,1-.8945.1767,5.4316,5.4316,0,0,1-2.2026-1.6821.25.25,0,0,0-.3946.3066A5.93,5.93,0,0,0,7.207,20.99a1.3127,1.3127,0,0,0,1.4409-.2841,1.2986,1.2986,0,0,0,.297-.5c.4353.0372.8058.044,1.0551.044a13.26,13.26,0,0,0,2.6151-.2626.7128.7128,0,0,1-.267,1.059L9.63,22.4053A3.3239,3.3239,0,0,1,6.21,22.1L3.9811,20.4217A1.7331,1.7331,0,0,0,4.25,19.5v-2a1.7233,1.7233,0,0,0-.0721-.4694,4.4721,4.4721,0,0,1,1.742.2062A4.62,4.62,0,0,1,8.4321,19.3818Zm3.3179-6.09a.8053.8053,0,0,1-1.166.72,1.3137,1.3137,0,0,0-1.168,0,.8053.8053,0,0,1-1.166-.72v-.92a12.9128,12.9128,0,0,1,3.5.0029Z"/>
<path fill="#FFFFFF" d="M14,15.75H12a.25.25,0,0,0,0,.5h2a.25.25,0,0,0,0-.5Z"/>
<path fill="#FFFFFF" d="M14,16.75H12a.25.25,0,0,0,0,.5h2a.25.25,0,0,0,0-.5Z"/>
</svg>